<svg aria-hidden="true" style="position: absolute; width: 0; height: 0; overflow: hidden;" version="1.1" xmlns="http://www.w3.org/2000/svg" xmlns:xlink="http://www.w3.org/1999/xlink">
<defs>
<symbol id="icon-icon-facebook" viewBox="0 0 32 32">
<path d="M30.233 0h-28.467c-0.976 0-1.767 0.791-1.767 1.767v28.468c0 0.975 0.791 1.765 1.767 1.765h15.327v-12.392h-4.171v-4.829h4.171v-3.561c0-4.133 2.524-6.384 6.212-6.384 1.767 0 3.284 0.132 3.727 0.191v4.32l-2.557 0.001c-2.005 0-2.393 0.953-2.393 2.351v3.084h4.783l-0.623 4.829h-4.16v12.391h8.155c0.973 0 1.764-0.791 1.764-1.767v-28.467c0-0.976-0.791-1.767-1.767-1.767z"></path>
</symbol>
<symbol id="icon-icon-instagram" viewBox="0 0 32 32">
<path d="M16 2.884c4.272 0 4.779 0.016 6.467 0.093 4.336 0.197 6.361 2.255 6.559 6.559 0.077 1.687 0.092 2.193 0.092 6.465 0 4.273-0.016 4.779-0.092 6.465-0.199 4.3-2.219 6.361-6.559 6.559-1.688 0.077-2.192 0.093-6.467 0.093-4.272 0-4.779-0.016-6.465-0.093-4.347-0.199-6.361-2.265-6.559-6.56-0.077-1.687-0.093-2.192-0.093-6.465 0-4.272 0.017-4.777 0.093-6.465 0.199-4.303 2.219-6.361 6.559-6.559 1.688-0.076 2.193-0.092 6.465-0.092zM16 0c-4.345 0-4.889 0.019-6.596 0.096-5.811 0.267-9.040 3.491-9.307 9.307-0.079 1.708-0.097 2.252-0.097 6.597s0.019 4.891 0.096 6.597c0.267 5.811 3.491 9.040 9.307 9.307 1.708 0.077 2.252 0.096 6.597 0.096s4.891-0.019 6.597-0.096c5.805-0.267 9.043-3.491 9.305-9.307 0.079-1.707 0.097-2.252 0.097-6.597s-0.019-4.889-0.096-6.596c-0.261-5.805-3.489-9.040-9.305-9.307-1.708-0.079-2.253-0.097-6.599-0.097zM16 7.784c-4.538 0-8.216 3.678-8.216 8.216s3.678 8.216 8.216 8.216v0c4.538 0 8.216-3.678 8.216-8.216s-3.678-8.216-8.216-8.216v0zM16 21.333c-2.946 0-5.333-2.388-5.333-5.333s2.388-5.333 5.333-5.333v0c2.946 0 5.333 2.388 5.333 5.333s-2.388 5.333-5.333 5.333v0zM24.541 5.54c-1.061 0-1.921 0.86-1.921 1.921s0.86 1.921 1.921 1.921v0c1.061 0 1.921-0.86 1.921-1.921s-0.86-1.921-1.921-1.921v0z"></path>
</symbol>
<symbol id="icon-icon-twitter" viewBox="0 0 38 32">
<path d="M38.4 4.091c-1.318 0.6-2.846 1.037-4.449 1.232l-0.076 0.008c1.63-0.986 2.855-2.501 3.448-4.303l0.016-0.056c-1.44 0.87-3.116 1.533-4.902 1.895l-0.101 0.017c-1.439-1.533-3.478-2.488-5.74-2.488-0.004 0-0.007 0-0.011 0h0.001c-5.086 0-8.824 4.746-7.675 9.672-6.562-0.338-12.335-3.457-16.205-8.19l-0.032-0.040c-0.671 1.135-1.067 2.502-1.067 3.961 0 2.722 1.379 5.122 3.476 6.539l0.028 0.018c-1.316-0.043-2.538-0.403-3.606-1.006l0.039 0.020c-0.086 3.65 2.53 7.064 6.318 7.824-0.621 0.175-1.333 0.276-2.070 0.276-0.527 0-1.041-0.052-1.539-0.15l0.050 0.008c1.037 3.155 3.927 5.405 7.352 5.47l0.008 0c-2.664 2.105-6.072 3.377-9.776 3.377-0.665 0-1.321-0.041-1.965-0.121l0.077 0.008c3.408 2.219 7.578 3.539 12.056 3.539 0.007 0 0.014 0 0.022 0h-0.001c14.627 0 22.891-12.354 22.392-23.434 1.548-1.128 2.852-2.479 3.895-4.022l0.036-0.057z"></path>
</symbol>
</defs>
</svg>
